<svg xmlns="http://www.w3.org/2000/svg" xmlns:xlink="http://www.w3.org/1999/xlink" version="1.1" x="0px" y="0px" viewBox="0 0 100 125" style="enable-background:new 0 0 100 100;" xml:space="preserve"><g><g><path d="M70.745,83.051v7.032c0,2.33,1.888,4.22,4.219,4.22c2.331,0,4.22-1.89,4.22-4.22v-7.032H70.745z"/><path d="M37.693,31.013h33.052V63.36h8.438V26.794c0-2.331-1.889-4.22-4.22-4.22H37.693V31.013z"/><path d="M18.003,22.574h-7.032c-2.331,0-4.219,1.889-4.219,4.22c0,2.33,1.889,4.219,4.219,4.219h7.032V22.574z"/></g><path d="M89.028,77.427h-61.18c-2.331,0-4.219-1.892-4.219-4.221V9.916c0-2.331,1.888-4.219,4.219-4.219   c2.332,0,4.22,1.888,4.22,4.219v59.07h56.96c2.331,0,4.22,1.891,4.22,4.22S91.359,77.427,89.028,77.427z"/></g><text x="0" y="115" fill="#000000" font-size="5px" font-weight="bold" font-family="'Helvetica Neue', Helvetica, Arial-Unicode, Arial, Sans-serif">Created by Mike Rowe</text><text x="0" y="120" fill="#000000" font-size="5px" font-weight="bold" font-family="'Helvetica Neue', Helvetica, Arial-Unicode, Arial, Sans-serif">from the Noun Project</text></svg>