<svg xmlns:dc="http://purl.org/dc/elements/1.1/" xmlns:cc="http://creativecommons.org/ns#" xmlns:rdf="http://www.w3.org/1999/02/22-rdf-syntax-ns#" xmlns:svg="http://www.w3.org/2000/svg" xmlns="http://www.w3.org/2000/svg" xmlns:sodipodi="http://sodipodi.sourceforge.net/DTD/sodipodi-0.dtd" xmlns:inkscape="http://www.inkscape.org/namespaces/inkscape" version="1.1" x="0px" y="0px" viewBox="0 0 100 125"><g transform="translate(0,-952.36218)"><path style="text-indent:0;text-transform:none;direction:ltr;block-progression:tb;baseline-shift:baseline;color:#000000;enable-background:accumulate;" d="m 75.468702,958.332 a 2.0002,2.0002 0 0 0 -1.8125,2 l 0,15.6875 c -16.6854,16.67557 -33.351,33.351 -50.0312,50.0313 l -15.625,0 a 2.0002,2.0002 0 0 0 -2,2 l 0,16.3438 a 2.0002,2.0002 0 0 0 2,2 l 16.3437,0 a 2.0002,2.0002 0 0 0 2,-2 l 0,-15.4063 c 16.7688,-16.7689 33.5391,-33.54898 50.3125,-50.31255 l 15.3438,0 a 2.0002,2.0002 0 0 0 1.999996,-2 l 0,-16.34375 a 2.0002,2.0002 0 0 0 -1.999996,-2 l -16.3438,0 a 2.0002,2.0002 0 0 0 -0.1875,0 z m -65.4687,71.7188 12.3437,0 0,12.3438 -12.3437,0 0,-12.3438 z" fill="#000000" fill-opacity="1" fill-rule="evenodd" stroke="none" marker="none" visibility="visible" display="inline" overflow="visible"/></g><text x="0" y="115" fill="#000000" font-size="5px" font-weight="bold" font-family="'Helvetica Neue', Helvetica, Arial-Unicode, Arial, Sans-serif">Created by alvianwijaya</text><text x="0" y="120" fill="#000000" font-size="5px" font-weight="bold" font-family="'Helvetica Neue', Helvetica, Arial-Unicode, Arial, Sans-serif">from the Noun Project</text></svg>