<svg xmlns="http://www.w3.org/2000/svg" xmlns:xlink="http://www.w3.org/1999/xlink" viewBox="0 0 26 30" version="1.1" x="0px" y="0px"><title>Download 469</title><desc>Created with Sketch.</desc><g stroke="none" stroke-width="1" fill="none" fill-rule="evenodd"><g fill="#000000" fill-rule="nonzero"><path d="M7.385,10.5035 L11.885,15.5035 C12.1692178,15.8200426 12.5745838,16.000862 13,16.000862 C13.4254162,16.000862 13.8307822,15.8200426 14.115,15.5035 L18.615,10.5035 C19.1692177,9.8877025 19.1192975,8.93921776 18.5035,8.38500002 C17.8877025,7.83078229 16.9392178,7.88070252 16.385,8.4965 L14.5,10.591 L14.5,1.5 C14.5,0.671572875 13.8284271,0 13,0 C12.1715729,0 11.5,0.671572875 11.5,1.5 L11.5,10.591 L9.615,8.4965 C9.25648399,8.09814884 8.71268371,7.92132321 8.18844349,8.03263162 C7.66420326,8.14394003 7.23916765,8.52647208 7.07344346,9.03613165 C6.90771927,9.54579121 7.02648395,10.1051489 7.385,10.5035 Z M24.5,13.5 C23.6715729,13.5 23,14.1715729 23,15 L23,21 L3,21 L3,15 C3,14.1715729 2.32842712,13.5 1.5,13.5 C0.671572875,13.5 0,14.1715729 0,15 L0,22.5 C0,23.3284271 0.671572875,24 1.5,24 L24.5,24 C25.3284271,24 26,23.3284271 26,22.5 L26,15 C26,14.1715729 25.3284271,13.5 24.5,13.5 Z"/></g></g><text x="0" y="39" fill="#000000" font-size="5px" font-weight="bold" font-family="'Helvetica Neue', Helvetica, Arial-Unicode, Arial, Sans-serif">Created by iconfun</text><text x="0" y="44" fill="#000000" font-size="5px" font-weight="bold" font-family="'Helvetica Neue', Helvetica, Arial-Unicode, Arial, Sans-serif">from the Noun Project</text></svg>