<svg xmlns="http://www.w3.org/2000/svg" xmlns:xlink="http://www.w3.org/1999/xlink" version="1.1" x="0px" y="0px" viewBox="0 0 100 125" enable-background="new 0 0 100 100" xml:space="preserve"><path d="M33.121,68.091c-0.029,2.143-0.529,4.415-1.655,6.253c-1.722,2.813-5.082,4.392-8.173,5.165  c-1.384,0.346-2.87,0.668-4.298,0.445c-0.023-0.003-0.117-0.036-0.138-0.025c1.076-0.563,1.929-2.612,2.851-3.943  c0.922-1.332,2.441-2.441,2.441-2.441c-1.69-0.632-3.372,1.46-3.372,1.46c-0.154-1.332,0.717-3.636,0.717-3.636  c1.485-3.38,3.227-4.148,4.814-5.07c1.588-0.922,3.892-1.332,3.892-1.332c-1.023-0.564-2.354-0.407-3.471-0.331  c-1.232,0.084-2.457,0.249-3.673,0.459c-3.511,0.605-6.453,3.141-7.754,6.397c-0.639,1.599-0.883,3.333-1.602,4.893  c-0.731,1.587-1.741,2.918-2.718,4.356c-0.472,0.694-0.914,1.416-1.219,2.201c-0.285,0.735-0.117,1.634-0.509,2.306  c0.359-0.614,1.741-1.331,3.074-1.64c1.333-0.309,2.338,0.497,2.338,0.497s-2.262,0.913-3.979,3.089  c-1.716,2.176-2.146,5.126-2.146,5.126c1.327-2.263,4.154-2.949,6.506-3.602c2.629-0.73,5.295-1.318,7.929-2.029  c2.632-0.71,5.145-2.056,7.045-4.028c2.714-2.817,4.28-6.577,4.266-10.279c0,0-0.091-2.652-1.167-4.496  C33.123,67.954,33.122,68.022,33.121,68.091z"/><path d="M69.627,23.191c-1.62,0-3.239,0.616-4.473,1.849c-2.466,2.466-2.466,6.479,0,8.944c2.466,2.465,6.477,2.466,8.944,0  c2.466-2.466,2.466-6.479,0-8.944C72.865,23.807,71.246,23.191,69.627,23.191z"/><path d="M91.095,14.153c-0.096-0.772-0.212-1.542-0.349-2.308c-0.053-0.295-0.108-0.59-0.169-0.883  c-0.161-0.783-0.164-1.642-0.972-2.056c-0.692-0.354-1.537-0.375-2.287-0.51c-1.08-0.194-2.168-0.345-3.259-0.459  c-3.106-0.324-6.245-0.346-9.348-0.035c-3.479,0.349-6.917,1.127-10.17,2.396c-12.638,4.932-22.276,18.615-22.276,18.615  l-6.906,0.549L23.356,52.061c0,0,6.954-1.075,10.826,1.842l-1.816,1.816l5.282,5.282l0.489,0.489l5.282,5.282l1.816-1.816  c2.917,3.872,1.842,10.826,1.842,10.826L69.675,63.78l0.549-6.906c0,0,13.684-9.638,18.615-22.276  c1.415-3.626,2.218-7.478,2.499-11.364C91.558,20.212,91.47,17.164,91.095,14.153z M54.747,30.237  c-0.138,0.086-8.685,5.511-13.778,18.501c-0.231,0.592-0.798,0.953-1.396,0.953c-0.183,0-0.368-0.034-0.548-0.104  c-0.771-0.302-1.151-1.173-0.849-1.944c5.499-14.024,14.617-19.728,15.003-19.964c0.705-0.431,1.63-0.21,2.063,0.496  S55.452,29.804,54.747,30.237z M76.22,36.105c-1.817,1.818-4.205,2.727-6.593,2.727c-2.389,0-4.776-0.909-6.594-2.727  c-3.636-3.635-3.636-9.551,0-13.187c3.635-3.635,9.552-3.636,13.187,0C79.856,26.554,79.856,32.47,76.22,36.105z"/><text x="0" y="115" fill="#000000" font-size="5px" font-weight="bold" font-family="'Helvetica Neue', Helvetica, Arial-Unicode, Arial, Sans-serif">Created by Alina Oleynik</text><text x="0" y="120" fill="#000000" font-size="5px" font-weight="bold" font-family="'Helvetica Neue', Helvetica, Arial-Unicode, Arial, Sans-serif">from the Noun Project</text></svg>